<svg xmlns="http://www.w3.org/2000/svg" width="261" height="261"><defs><clipPath id="a"><path d="M0 0h261v261H0z"/></clipPath></defs><g data-name="Ikona (zegar)" clip-path="url(#a)"><path data-name="Subtraction 8" d="M130.5 261a131.461 131.461 0 01-26.3-2.651 129.785 129.785 0 01-46.663-19.636A130.881 130.881 0 0110.255 181.3a129.843 129.843 0 01-7.6-24.5 131.77 131.77 0 010-52.6 129.785 129.785 0 0119.632-46.664A130.881 130.881 0 0179.7 10.255a129.843 129.843 0 0124.5-7.6 131.77 131.77 0 0152.6 0 129.785 129.785 0 0146.663 19.636A130.881 130.881 0 01250.745 79.7a129.843 129.843 0 017.6 24.5 131.77 131.77 0 010 52.6 129.785 129.785 0 01-19.636 46.663 130.881 130.881 0 01-57.409 47.282 129.843 129.843 0 01-24.5 7.6A131.461 131.461 0 01130.5 261zm0-236.9a11.012 11.012 0 00-11 11v95.081a11 11 0 002.159 6.863l.007.009.014.02.008.011a10.99 10.99 0 006.267 4.118l63.418 16.998a10.99 10.99 0 002.843.377h.01a11 11 0 002.84-21.627L141.5 122.058V35.1a11.012 11.012 0 00-11-11z" fill="#fea234"/></g></svg>