<svg xmlns="http://www.w3.org/2000/svg" width="189" height="261"><defs><clipPath id="a"><path d="M0 0h189v261H0z"/></clipPath></defs><g data-name="Ikona (lokacja)" clip-path="url(#a)"><path data-name="Subtraction 4" d="M94.399 261.003c-2.8 0-9.952-6.788-19.635-18.624a476.922 476.922 0 01-31.987-44.9c-12.2-19.241-22.518-38.163-29.832-54.722C4.207 122.978-.223 106.801-.223 94.676a94.512 94.512 0 0116.16-53.016A94.928 94.928 0 0157.568 7.307a94.349 94.349 0 0189.736 8.742 94.728 94.728 0 0141.719 78.626c0 12.125-4.43 28.3-13.168 48.081-7.314 16.558-17.63 35.479-29.833 54.722a476.819 476.819 0 01-31.988 44.9c-9.683 11.836-16.84 18.625-19.635 18.625zm1.821-199.15a34.646 34.646 0 1034.574 34.646A34.65 34.65 0 0096.22 61.857z" fill="#fea234"/></g></svg>