<svg xmlns="http://www.w3.org/2000/svg" width="30" height="30"><defs><clipPath id="a"><path d="M0 0h30v30H0z"/></clipPath></defs><g data-name="Ikona (zegar)" clip-path="url(#a)"><path data-name="Subtraction 8" d="M15 30a15.11 15.11 0 01-3.023-.3 14.918 14.918 0 01-5.364-2.257 15.044 15.044 0 01-5.435-6.6 14.924 14.924 0 01-.878-2.82 15.146 15.146 0 010-6.046 14.918 14.918 0 012.262-5.364 15.044 15.044 0 016.6-5.435A14.924 14.924 0 0111.977.3a15.146 15.146 0 016.046 0 14.918 14.918 0 015.364 2.257 15.044 15.044 0 015.435 6.6 14.925 14.925 0 01.874 2.816 15.146 15.146 0 010 6.046 14.918 14.918 0 01-2.257 5.364 15.044 15.044 0 01-6.6 5.435 14.925 14.925 0 01-2.816.874A15.11 15.11 0 0115 30zm0-27.23a1.266 1.266 0 00-1.264 1.264v10.93a1.264 1.264 0 00.248.789 1.263 1.263 0 00.72.473L22 18.184a1.263 1.263 0 00.327.043 1.265 1.265 0 00.326-2.486l-6.389-1.711V4.035A1.266 1.266 0 0015 2.77z" fill="#fea234"/></g></svg>