<svg data-name="Ikona (FB)" xmlns="http://www.w3.org/2000/svg" width="79.971" height="79.971"><path data-name="Path 4" d="M79.971 39.985a39.985 39.985 0 10-46.233 39.5V51.546H23.583V39.985h10.155v-8.811c0-10.02 5.972-15.559 15.1-15.559a61.468 61.468 0 018.952.782v9.84h-5.04c-4.965 0-6.517 3.081-6.517 6.247v7.5h11.088L55.55 51.546h-9.317v27.941a39.99 39.99 0 0033.738-39.502z" fill="#1977f3"/><path data-name="Path 5" d="M55.55 51.546l1.771-11.561H46.232v-7.5c0-3.16 1.546-6.247 6.517-6.247h5.044v-9.84a61.476 61.476 0 00-8.952-.781c-9.132 0-15.1 5.533-15.1 15.559v8.811H23.583v11.561h10.155v27.941a40.131 40.131 0 006.247.484 40.829 40.829 0 006.247-.484V51.548z" fill="#fefefe"/></svg>