<svg xmlns="http://www.w3.org/2000/svg" width="30" height="30"><defs><clipPath id="a"><path d="M0 0h30v30H0z"/></clipPath></defs><g data-name="Ikona (telefon)" clip-path="url(#a)"><path data-name="Union 2" d="M14.55 28.208a23.791 23.791 0 01-7.573-4.94 22.955 22.955 0 01-5.1-7.329A22.28 22.28 0 01.004 6.964a22.557 22.557 0 01.224-3.173h.045a3 3 0 011.836-2.26L5.698.081a3.009 3.009 0 013.918 1.662l2.1 5.183c.622 1.542.27 2.458-1.394 3.913l-2.086 1.782a23.657 23.657 0 009.43 9.075l1.244-1.562c1.4-1.713 2.3-2.1 3.863-1.528l5.253 1.912a3.009 3.009 0 011.8 3.857l-1.324 3.637a3 3 0 01-1.828 1.81v.036l-.17.019a3.011 3.011 0 01-1.169.1c-.5.029-1 .045-1.5.045a24.376 24.376 0 01-9.285-1.814z" fill="#fea234"/></g></svg>