<svg xmlns="http://www.w3.org/2000/svg" width="260" height="261"><defs><clipPath id="a"><path d="M0 0h260v261H0z"/></clipPath></defs><g data-name="Ikona (telefon)" clip-path="url(#a)"><path data-name="Union 2" d="M126.204 245.307a206.032 206.032 0 01-65.567-42.775 198.685 198.685 0 01-44.2-63.463A192.9 192.9 0 01.224 61.358a195.171 195.171 0 011.94-27.465h.392a26.039 26.039 0 0115.9-19.574L49.53 1.764a26.064 26.064 0 0133.93 14.4l18.14 44.873c5.387 13.346 2.341 21.275-12.064 33.877l-18.062 15.434a204.808 204.808 0 0081.646 78.576l10.769-13.518c12.1-14.83 19.917-18.156 33.445-13.234l45.486 16.555a26.054 26.054 0 0115.58 33.4l-11.462 31.488a25.99 25.99 0 01-15.83 15.666v.311l-1.471.162a25.979 25.979 0 01-10.125.852c-4.343.262-8.693.4-13.019.4a210.916 210.916 0 01-80.289-15.699z" fill="#fea234"/></g></svg>