<svg xmlns="http://www.w3.org/2000/svg" width="235" height="164"><defs><clipPath id="a"><path d="M0 0h235v164H0z"/></clipPath></defs><g data-name="Ikona (mail)" clip-path="url(#a)"><path data-name="Subtraction 7" d="M203.621 164.001H31.324A31.317 31.317 0 010 132.767V31.235a31.122 31.122 0 011.176-8.516l110.219 90.25a11.849 11.849 0 0014.875 0l108.09-88.047a31.356 31.356 0 01.64 6.313v101.532a31.343 31.343 0 01-31.379 31.234zm-84.793-75.25v-.016L15.547 4.235A31.461 31.461 0 0131.324.001h172.3A31.4 31.4 0 01221.2 5.36L118.832 88.735z" fill="#fea234"/></g></svg>