<svg xmlns="http://www.w3.org/2000/svg" width="30" height="30"><defs><clipPath id="a"><path d="M0 0h30v30H0z"/></clipPath></defs><g data-name="Ikona (FB)" clip-path="url(#a)"><path data-name="Path 4" d="M30 15a15 15 0 10-17.344 14.819V19.337H8.847V15h3.81v-3.305c0-3.759 2.24-5.837 5.666-5.837a23.059 23.059 0 013.358.293v3.691h-1.893a2.169 2.169 0 00-2.445 2.344V15H21.5l-.664 4.337h-3.5v10.482A15 15 0 0030 15z" fill="#1977f3"/><path data-name="Path 5" d="M20.839 19.337L21.503 15h-4.156v-2.814a2.168 2.168 0 012.444-2.344h1.893V6.151a23.055 23.055 0 00-3.358-.293c-3.425 0-5.666 2.076-5.666 5.837v3.306H8.847v4.337h3.81v10.481a15.081 15.081 0 002.344.182 15.314 15.314 0 002.344-.182V19.338z" fill="#fefefe"/></g></svg>