<svg xmlns="http://www.w3.org/2000/svg" width="30" height="30"><defs><clipPath id="a"><path d="M0 0h30v30H0z"/></clipPath></defs><g data-name="Ikona (lokacja)" clip-path="url(#a)"><path data-name="Subtraction 4" d="M15 30c-.325 0-1.159-.783-2.287-2.149a54.932 54.932 0 01-3.727-5.184 49.377 49.377 0 01-3.476-6.316 14.647 14.647 0 01-1.534-5.55 10.847 10.847 0 011.883-6.12 11.062 11.062 0 0118.284 0 10.847 10.847 0 011.883 6.12 14.643 14.643 0 01-1.534 5.55 49.35 49.35 0 01-3.476 6.316 54.845 54.845 0 01-3.727 5.184C16.16 29.216 15.326 30 15 30zm.212-22.988a4 4 0 104.028 4 4.019 4.019 0 00-4.028-4.001z" fill="#fea234"/></g></svg>