<svg xmlns="http://www.w3.org/2000/svg" width="222.708" height="158.39"><g data-name="Logo Psiaki-Nati (kwadrat)"><g data-name="Group 17"><path data-name="Path 19" d="M2.133 125.52h8.628a3.5 3.5 0 001.883-.5 3.413 3.413 0 001.262-1.41 4.585 4.585 0 00.455-2.076 4.754 4.754 0 00-.445-2.115 3.33 3.33 0 00-1.262-1.41 3.545 3.545 0 00-1.893-.5H2.133v-4.249h8.5a8.924 8.924 0 014.351 1.03 7.2 7.2 0 012.913 2.9 8.871 8.871 0 011.03 4.342 8.818 8.818 0 01-1.03 4.333 7.152 7.152 0 01-2.913 2.885 8.99 8.99 0 01-4.351 1.021h-8.5zm-2.134-12.265h4.435v26.979H-.001zm33.862 27.257a17.991 17.991 0 01-3.731-.378A14.877 14.877 0 0126.761 139a13.863 13.863 0 01-2.867-1.828l2.356-3.544a11.293 11.293 0 003.511 1.986 12.247 12.247 0 004.1.687 7.727 7.727 0 004.2-.967 3.067 3.067 0 001.5-2.726v-.019a2.821 2.821 0 00-.668-1.976 3.91 3.91 0 00-1.749-1.079 21.755 21.755 0 00-2.765-.64.35.35 0 00-.111-.019.35.35 0 01-.111-.019l-.334-.056a26.963 26.963 0 01-4.453-1.058 6.4 6.4 0 01-2.969-2.189 7.151 7.151 0 01-1.225-4.472v-.019a8.022 8.022 0 011.15-4.379 7.205 7.205 0 013.34-2.765 13.242 13.242 0 015.27-.946 13.31 13.31 0 012.9.325 15.407 15.407 0 012.867.946 15.207 15.207 0 012.709 1.549l-2.151 3.661a12.619 12.619 0 00-3.154-1.688 9.414 9.414 0 00-3.173-.575 7.1 7.1 0 00-3.952.937 3 3 0 00-1.41 2.644v.019a2.72 2.72 0 00.733 2.013 4.487 4.487 0 001.809 1.085 25.686 25.686 0 003.024.724 1.382 1.382 0 00.139.028 1.383 1.383 0 01.139.028 2.161 2.161 0 01.213.046 2.161 2.161 0 00.213.046 22.74 22.74 0 014.184 1.2 6.458 6.458 0 012.8 2.254 7.177 7.177 0 011.123 4.268v.037a7.627 7.627 0 01-1.188 4.315 7.45 7.45 0 01-3.446 2.732 14.122 14.122 0 01-5.454.946zm21.353-.278h-4.527v-26.979h4.527zm15.565-26.979h3.229l10.13 26.979h-4.769l-6.977-20.095-6.957 20.095h-4.787zm-5.362 17.609h14.194v4.249H65.417zm27.737-1.818l11.355-15.79h5.529l-16.847 21.931zm-3.024-15.79h4.431v26.978h-4.435zm7.515 12.951l3.674-2.765 9.851 16.792h-5.325zm23.858 14.027h-4.527v-26.979h4.527zm20.888-26.979h4.824l11.616 20.763-.445.482v-21.245h4.3v26.96h-4.857l-11.578-20.447.445-.482v20.929h-4.3zm36.05 0h3.229l10.13 26.979h-4.768l-6.977-20.095-6.958 20.095h-4.787zm-5.362 17.609h14.194v4.249h-14.194zm27.756-15.4h4.435v24.77h-4.436zm-7.5-2.208h19.408v4.249h-19.405zm29.373 26.978h-4.527v-26.979h4.527z"/><path data-name="Path 20" d="M131.761 124.234a3.5 3.5 0 11-3.5 3.5 3.5 3.5 0 013.5-3.5z"/><path data-name="Path 21" d="M43.043 158.026a4.253 4.253 0 001.794.364 4.4 4.4 0 001.807-.338 2.564 2.564 0 001.144-.943 2.5 2.5 0 00.39-1.385 2.423 2.423 0 00-.325-1.326 2.286 2.286 0 00-.949-.812 8.607 8.607 0 00-1.677-.566 6.693 6.693 0 01-1.794-.643 1.018 1.018 0 01-.533-.9 1.046 1.046 0 01.513-.9 2.323 2.323 0 011.32-.345 2.475 2.475 0 011.332.351 1.323 1.323 0 01.591 1.17h1.391a2.931 2.931 0 00-.351-1.365 2.52 2.52 0 00-1.065-1.02 3.948 3.948 0 00-1.872-.39 4.042 4.042 0 00-1.742.345 2.627 2.627 0 00-1.1.917 2.2 2.2 0 00-.377 1.235 2.1 2.1 0 00.708 1.7 5.2 5.2 0 002.177.936 10.945 10.945 0 011.372.4 1.88 1.88 0 01.754.488 1.12 1.12 0 01.254.76 1.179 1.179 0 01-.475.988 2.269 2.269 0 01-1.4.364 2.369 2.369 0 01-1.6-.494 1.842 1.842 0 01-.637-1.3h-1.392a3.062 3.062 0 00.487 1.645 2.944 2.944 0 001.255 1.064zm12.441-2.015l.767 2.223h1.456l-3.2-9.1h-1.742l-3.183 9.1h1.456l.767-2.223zm-.416-1.2h-2.86l1.43-4.173zm10.556 2.145h-4.5v-7.627a.193.193 0 00-.052-.143.176.176 0 00-.13-.052h-1.2v9.1h5.876zm8.171-7.41a4.838 4.838 0 00-2.36-.572 4.811 4.811 0 00-2.347.572 4.157 4.157 0 00-1.65 1.648 4.984 4.984 0 00-.6 2.49 4.984 4.984 0 00.6 2.49 4.157 4.157 0 001.651 1.644 4.811 4.811 0 002.347.572 4.838 4.838 0 002.36-.572 4.114 4.114 0 001.643-1.644 5.027 5.027 0 00.6-2.49 5.027 5.027 0 00-.6-2.49 4.114 4.114 0 00-1.644-1.644zm-.7 7.085a3.181 3.181 0 01-1.658.429 3.181 3.181 0 01-1.659-.426 2.921 2.921 0 01-1.117-1.2 3.767 3.767 0 01-.4-1.75 3.767 3.767 0 01.4-1.755 2.921 2.921 0 011.118-1.2 3.181 3.181 0 011.658-.429 3.181 3.181 0 011.658.429 2.921 2.921 0 011.118 1.2 3.767 3.767 0 01.4 1.755 3.767 3.767 0 01-.4 1.755 2.921 2.921 0 01-1.12 1.195zm12.61-7.449a.2.2 0 00-.136-.052h-1.2v6.89l-4.822-6.886h-1.4v9.1h1.378v-6.812l4.871 6.812h1.365v-8.905a.181.181 0 00-.058-.143zm7.9 8.6a4.656 4.656 0 002.373.6 4.534 4.534 0 002.4-.618 3.925 3.925 0 001.541-1.762 6.132 6.132 0 00.5-2.691h-4.2v1.261h2.769a2.767 2.767 0 01-.871 1.794 3.031 3.031 0 01-2.145.7 3.2 3.2 0 01-1.711-.438 2.825 2.825 0 01-1.09-1.222 4 4 0 01-.364-1.723 4.027 4.027 0 01.344-1.658 2.916 2.916 0 011.06-1.253 3.1 3.1 0 011.768-.481 3.021 3.021 0 011.755.468 2.555 2.555 0 01.962 1.235h1.465a3.587 3.587 0 00-.936-1.775 3.924 3.924 0 00-1.534-.956 5.4 5.4 0 00-1.716-.286 4.656 4.656 0 00-2.373.6 4.2 4.2 0 00-1.625 1.677 5.025 5.025 0 00-.579 2.425 5.025 5.025 0 00.579 2.424 4.2 4.2 0 001.63 1.682zm15.309-4.371a2.578 2.578 0 00.481-1.6 2.391 2.391 0 00-.878-1.97 4.083 4.083 0 00-2.606-.707h-3.393v9.1h1.378v-3.731h2.158l1.69 3.731h1.517l-1.79-3.913a2.639 2.639 0 001.443-.91zm-5.018-3h2.184q1.937 0 1.937 1.4t-1.937 1.4h-2.184zm14.19-.858a4.838 4.838 0 00-2.359-.572 4.811 4.811 0 00-2.347.572 4.157 4.157 0 00-1.651 1.641 4.984 4.984 0 00-.6 2.49 4.984 4.984 0 00.6 2.49 4.157 4.157 0 001.651 1.644 4.811 4.811 0 002.346.572 4.838 4.838 0 002.36-.572 4.114 4.114 0 001.644-1.644 5.027 5.027 0 00.6-2.49 5.027 5.027 0 00-.6-2.49 4.114 4.114 0 00-1.644-1.644zm-.702 7.081a3.181 3.181 0 01-1.658.429 3.181 3.181 0 01-1.657-.429 2.921 2.921 0 01-1.118-1.2 3.767 3.767 0 01-.4-1.755 3.767 3.767 0 01.4-1.755 2.921 2.921 0 011.118-1.19 3.181 3.181 0 011.657-.43 3.181 3.181 0 011.658.43 2.921 2.921 0 011.118 1.2 3.767 3.767 0 01.4 1.755 3.767 3.767 0 01-.4 1.755 2.921 2.921 0 01-1.118 1.19zm11.739-7.084a4.838 4.838 0 00-2.36-.572 4.811 4.811 0 00-2.347.572 4.157 4.157 0 00-1.655 1.644 4.984 4.984 0 00-.6 2.49 4.984 4.984 0 00.6 2.49 4.157 4.157 0 001.656 1.644 4.811 4.811 0 002.344.572 4.838 4.838 0 002.36-.572 4.114 4.114 0 001.646-1.644 5.027 5.027 0 00.6-2.49 5.027 5.027 0 00-.6-2.49 4.114 4.114 0 00-1.644-1.644zm-.702 7.084a3.181 3.181 0 01-1.66.43 3.181 3.181 0 01-1.655-.43 2.921 2.921 0 01-1.118-1.2 3.767 3.767 0 01-.4-1.755 3.767 3.767 0 01.4-1.755 2.921 2.921 0 011.118-1.2 3.181 3.181 0 011.655-.42 3.181 3.181 0 011.66.43 2.921 2.921 0 011.118 1.2 3.767 3.767 0 01.4 1.755 3.767 3.767 0 01-.4 1.755 2.921 2.921 0 01-1.118 1.19zm13.578-7.5h-1.391l-2.886 4.875-2.873-4.875h-1.378v9.1h1.378v-6.565l2.3 3.809h1.17l2.288-3.822v6.578h1.391zm3.926 1.274h4.693v-1.274h-6.07v9.1h6.071v-1.274h-4.693v-2.847h4.42v-1.287h-4.42zm13.429 3a2.578 2.578 0 00.481-1.6 2.391 2.391 0 00-.877-1.97 4.083 4.083 0 00-2.606-.704h-3.391v9.1h1.378v-3.731h2.158l1.688 3.731h1.521l-1.794-3.913a2.639 2.639 0 001.443-.91zm-5.018-3h2.185q1.937 0 1.937 1.4t-1.937 1.4h-2.184zm9.049 7.618a4.253 4.253 0 001.794.364 4.4 4.4 0 001.807-.338 2.564 2.564 0 001.144-.943 2.5 2.5 0 00.39-1.385 2.423 2.423 0 00-.325-1.326 2.286 2.286 0 00-.949-.812 8.607 8.607 0 00-1.677-.566 6.693 6.693 0 01-1.794-.643 1.018 1.018 0 01-.533-.9 1.046 1.046 0 01.514-.9 2.323 2.323 0 011.319-.345 2.475 2.475 0 011.333.351 1.323 1.323 0 01.591 1.17h1.391a2.931 2.931 0 00-.351-1.365 2.52 2.52 0 00-1.066-1.014 3.948 3.948 0 00-1.872-.39 4.042 4.042 0 00-1.742.345 2.627 2.627 0 00-1.105.917 2.2 2.2 0 00-.377 1.235 2.1 2.1 0 00.708 1.7 5.2 5.2 0 002.178.936 10.945 10.945 0 011.371.4 1.88 1.88 0 01.754.488 1.12 1.12 0 01.254.76 1.179 1.179 0 01-.475.988 2.269 2.269 0 01-1.4.364 2.369 2.369 0 01-1.6-.494 1.842 1.842 0 01-.637-1.3h-1.387a3.062 3.062 0 00.488 1.645 2.944 2.944 0 001.254 1.058zm9.659-4.16l2.899 4.368h1.664l-3.614-5.473 3.146-3.627h-1.7l-3.331 3.822v-3.627a.193.193 0 00-.052-.143.176.176 0 00-.13-.052h-1.2v9.1h1.378v-3.289zm6.5-4.732v9.1h1.378v-8.905a.193.193 0 00-.052-.143.176.176 0 00-.13-.052z"/></g><g data-name="Group 18"><g data-name="Group 35" fill="#161615"><path data-name="Path 6" d="M171.054 14.411c-.753 11.492-3.709 20.382-10.952 27.506-13 12.785-32.163 14.6-48.735 4.69a9.833 9.833 0 00-6.881-1.184c-20.48 5.666-45.944-6.169-51.495-28.911-.079-.316-.418-.567-1.254-1.649-5.108 2.232-10.586 4.34-15.806 6.969-10.57 5.32-20.04 12.065-26.943 22.054C.777 55.77 1.632 69.08 3.542 82.228c.891 6.131 5.888 9.806 12.251 10.643 5.054.667 7.578-1.314 7.888-6.449.286-4.709-.02-9.458.359-14.156.129-1.6 1.547-3.094 2.376-4.637.925 1.491 2.581 2.951 2.65 4.482.3 6.709.139 13.439.139 20.161 0 7.062 1.579 9.833 5.857 9.549 6.46-.428 5.538-5.47 5.564-9.766.045-7.266-.171-14.542.154-21.8.072-1.609 1.936-3.136 2.975-4.7.822 1.583 2.31 3.146 2.355 4.752.228 7.986.119 15.985.043 23.978-.039 4.1.971 7.424 5.739 7.5s5.9-3.147 5.864-7.309c-.068-8.358-.158-16.72.128-25.068.056-1.653 1.773-3.248 2.722-4.869.9 1.658 2.53 3.293 2.586 4.981.273 8.167.145 16.348.115 24.524-.014 3.968.691 7.589 5.514 7.72 5.042.135 6.13-3.323 6.09-7.69-.082-8.9-.141-17.81.151-26.7.055-1.639 1.813-3.221 2.784-4.828.8 1.576 2.268 3.136 2.3 4.729.2 9.079.112 18.165.019 27.249-.04 3.917 1 7.032 5.414 7.22 4.62.2 6.256-2.74 6.25-7.013-.013-9.629-.119-19.261.136-28.885.046-1.691 1.671-3.34 2.567-5.009.954 1.625 2.691 3.228 2.735 4.879.261 9.622.174 19.256.1 28.883-.027 3.877.747 6.97 5.39 7.1 4.827.134 6.094-2.9 6.091-7.078-.007-9.629-.112-19.261.112-28.886.059-2.5-1.849-6.427 2.646-6.8.6-.05 2.2 4.57 2.3 7.065.355 9.429.255 18.88.355 28.327.042 3.991 1.019 7.459 5.854 7.437s5.732-3.344 5.713-7.45c-.047-9.628-.091-19.261.218-28.882.053-1.623 1.873-3.188 2.877-4.781.846 1.55 2.386 3.083 2.425 4.653.224 9.078.118 18.165.076 27.249-.02 4.311-.276 8.8 5.669 9.23 4.2.3 5.9-2.382 5.891-8.927 0-7.994-.149-15.989-.02-23.98.039-2.408-1.353-6.2 2.834-6.137.9.014 2.413 4.12 2.5 6.386.312 8.164.18 16.348.124 24.522-.029 4.163.579 8.072 5.683 8.124 5.429.055 6.025-3.989 5.973-8.379-.1-8.175-.171-16.355.079-24.524.047-1.54 1.639-3.033 2.518-4.548.925 1.464 2.6 2.9 2.65 4.4.266 8.713.214 17.438.134 26.158-.037 4.084 1.447 6.857 5.736 6.916 4.307.06 5.953-2.761 5.953-6.781 0-8.356-.184-16.719.085-25.067.053-1.63 1.816-3.2 2.79-4.8.862 1.554 2.421 3.087 2.468 4.667.256 8.349.191 16.712.113 25.068-.037 4.028 1.248 6.914 5.66 6.936 4.32.02 5.943-2.788 5.959-6.795.032-7.63-.108-15.265.152-22.887.053-1.537 1.566-3.023 2.406-4.531.876 1.518 2.385 2.987 2.51 4.567.358 4.515.023 9.079.2 13.616.227 5.824 3.242 8.1 8.865 6.97 6.737-1.358 11.086-7.018 12.021-14.245 3.228-24.976-7.036-42.593-28.53-54.112-6.447-3.455-13.186-6.35-20.793-9.98"/><path data-name="Path 7" d="M110.814.001c-8.033.066-11.2 2.837-11.174 9.767.033 7.854 5.542 13.512 13.11 13.466 7.469-.046 13.129-5.913 13.1-13.578-.024-5.785-6.164-9.727-15.036-9.655"/></g></g></g></svg>