<svg xmlns="http://www.w3.org/2000/svg" width="450.52" height="95.063"><g data-name="Logo Psiaki-Nati"><g data-name="Group 12"><path data-name="Path 17" d="M229.945 36.817h8.628a3.5 3.5 0 001.883-.5 3.413 3.413 0 001.262-1.41 4.585 4.585 0 00.455-2.076 4.754 4.754 0 00-.445-2.115 3.33 3.33 0 00-1.262-1.41 3.545 3.545 0 00-1.893-.5h-8.628v-4.249h8.5a8.924 8.924 0 014.351 1.03 7.2 7.2 0 012.913 2.9 8.871 8.871 0 011.03 4.342 8.818 8.818 0 01-1.03 4.333 7.152 7.152 0 01-2.913 2.885 8.99 8.99 0 01-4.351 1.021h-8.5zm-2.134-12.265h4.435v26.979h-4.435zm33.862 27.257a17.991 17.991 0 01-3.731-.378 14.877 14.877 0 01-3.369-1.134 13.863 13.863 0 01-2.867-1.828l2.356-3.544a11.293 11.293 0 003.511 1.986 12.247 12.247 0 004.1.687 7.727 7.727 0 004.2-.967 3.067 3.067 0 001.5-2.726v-.019a2.821 2.821 0 00-.668-1.976 3.91 3.91 0 00-1.749-1.079 21.755 21.755 0 00-2.765-.64.35.35 0 00-.111-.019.35.35 0 01-.111-.019l-.334-.056a26.963 26.963 0 01-4.453-1.058 6.4 6.4 0 01-2.969-2.189 7.151 7.151 0 01-1.225-4.472v-.019a8.022 8.022 0 011.15-4.379 7.205 7.205 0 013.34-2.765 13.242 13.242 0 015.27-.946 13.31 13.31 0 012.9.325 15.407 15.407 0 012.867.946 15.207 15.207 0 012.709 1.549l-2.151 3.661a12.619 12.619 0 00-3.154-1.688 9.414 9.414 0 00-3.173-.575 7.1 7.1 0 00-3.952.937 3 3 0 00-1.41 2.644v.019a2.72 2.72 0 00.733 2.013 4.487 4.487 0 001.809 1.085 25.686 25.686 0 003.024.724 1.382 1.382 0 00.139.028 1.383 1.383 0 01.139.028 2.161 2.161 0 01.213.046 2.161 2.161 0 00.213.046 22.74 22.74 0 014.184 1.2 6.458 6.458 0 012.8 2.254 7.177 7.177 0 011.123 4.268v.037a7.627 7.627 0 01-1.188 4.315 7.45 7.45 0 01-3.446 2.732 14.122 14.122 0 01-5.454.946zm21.353-.278h-4.527V24.552h4.527zm15.565-26.979h3.229l10.13 26.979h-4.769l-6.977-20.095-6.957 20.095h-4.787zm-5.362 17.609h14.194v4.249h-14.194zm27.737-1.818l11.355-15.79h5.529l-16.847 21.931zm-3.024-15.79h4.431v26.978h-4.435zm7.515 12.951l3.674-2.765 9.851 16.792h-5.325zm23.858 14.027h-4.527V24.552h4.527zm20.888-26.979h4.824l11.616 20.763-.445.482V24.552h4.3v26.96h-4.857l-11.578-20.447.445-.482v20.929h-4.3zm36.05 0h3.229l10.13 26.979h-4.768l-6.977-20.095-6.958 20.095h-4.787zm-5.362 17.609h14.194v4.249h-14.194zm27.756-15.4h4.435v24.77h-4.436zm-7.5-2.208h19.408v4.249H421.15zm29.373 26.978h-4.527V24.552h4.527z"/><path data-name="Path 18" d="M359.573 35.531a3.5 3.5 0 11-3.5 3.5 3.5 3.5 0 013.5-3.5z"/><path data-name="Path 16" d="M227.855 69.323a4.253 4.253 0 001.794.364 4.4 4.4 0 001.807-.338 2.564 2.564 0 001.144-.943 2.5 2.5 0 00.39-1.385 2.423 2.423 0 00-.325-1.326 2.286 2.286 0 00-.949-.812 8.607 8.607 0 00-1.677-.566 6.693 6.693 0 01-1.794-.643 1.018 1.018 0 01-.533-.9 1.046 1.046 0 01.513-.9 2.323 2.323 0 011.32-.345 2.475 2.475 0 011.332.351 1.323 1.323 0 01.591 1.17h1.391a2.931 2.931 0 00-.351-1.365 2.52 2.52 0 00-1.065-1.02 3.948 3.948 0 00-1.872-.39 4.042 4.042 0 00-1.742.345 2.627 2.627 0 00-1.1.917 2.2 2.2 0 00-.377 1.235 2.1 2.1 0 00.708 1.7 5.2 5.2 0 002.177.936 10.945 10.945 0 011.372.4 1.88 1.88 0 01.754.488 1.12 1.12 0 01.254.76 1.179 1.179 0 01-.475.988 2.269 2.269 0 01-1.4.364 2.369 2.369 0 01-1.6-.494 1.842 1.842 0 01-.637-1.3h-1.392a3.062 3.062 0 00.487 1.645 2.944 2.944 0 001.255 1.064zm12.441-2.015l.767 2.223h1.456l-3.2-9.1h-1.742l-3.183 9.1h1.456l.767-2.223zm-.416-1.2h-2.86l1.43-4.173zm10.556 2.145h-4.5v-7.627a.193.193 0 00-.052-.143.176.176 0 00-.13-.052h-1.2v9.1h5.876zm8.171-7.41a4.838 4.838 0 00-2.36-.572 4.811 4.811 0 00-2.347.572 4.157 4.157 0 00-1.65 1.648 4.984 4.984 0 00-.6 2.49 4.984 4.984 0 00.6 2.49 4.157 4.157 0 001.651 1.644 4.811 4.811 0 002.347.572 4.838 4.838 0 002.36-.572 4.114 4.114 0 001.643-1.644 5.027 5.027 0 00.6-2.49 5.027 5.027 0 00-.6-2.49 4.114 4.114 0 00-1.644-1.644zm-.7 7.085a3.181 3.181 0 01-1.658.429 3.181 3.181 0 01-1.659-.426 2.921 2.921 0 01-1.117-1.2 3.767 3.767 0 01-.4-1.75 3.767 3.767 0 01.4-1.755 2.921 2.921 0 011.118-1.2 3.181 3.181 0 011.658-.429 3.181 3.181 0 011.658.429 2.921 2.921 0 011.118 1.2 3.767 3.767 0 01.4 1.755 3.767 3.767 0 01-.4 1.755 2.921 2.921 0 01-1.12 1.195zm12.61-7.449a.2.2 0 00-.136-.052h-1.2v6.89l-4.822-6.886h-1.4v9.1h1.378v-6.812l4.871 6.812h1.365v-8.905a.181.181 0 00-.058-.143zm7.9 8.6a4.656 4.656 0 002.373.6 4.534 4.534 0 002.4-.618 3.925 3.925 0 001.541-1.762 6.132 6.132 0 00.5-2.691h-4.2v1.261h2.769a2.767 2.767 0 01-.871 1.794 3.031 3.031 0 01-2.145.7 3.2 3.2 0 01-1.711-.438 2.825 2.825 0 01-1.09-1.222 4 4 0 01-.364-1.723 4.027 4.027 0 01.344-1.658 2.916 2.916 0 011.06-1.253 3.1 3.1 0 011.768-.481 3.021 3.021 0 011.755.468 2.555 2.555 0 01.962 1.235h1.465a3.587 3.587 0 00-.936-1.775 3.924 3.924 0 00-1.534-.956 5.4 5.4 0 00-1.716-.286 4.656 4.656 0 00-2.373.6 4.2 4.2 0 00-1.625 1.677 5.025 5.025 0 00-.579 2.425 5.025 5.025 0 00.579 2.424 4.2 4.2 0 001.63 1.682zm15.309-4.371a2.578 2.578 0 00.481-1.6 2.391 2.391 0 00-.878-1.97 4.083 4.083 0 00-2.606-.707h-3.393v9.1h1.378V65.8h2.158l1.69 3.731h1.517l-1.79-3.913a2.639 2.639 0 001.443-.91zm-5.018-3h2.184q1.937 0 1.937 1.4t-1.937 1.4h-2.184zm14.19-.858a4.838 4.838 0 00-2.359-.572 4.811 4.811 0 00-2.347.572 4.157 4.157 0 00-1.651 1.641 4.984 4.984 0 00-.6 2.49 4.984 4.984 0 00.6 2.49 4.157 4.157 0 001.651 1.644 4.811 4.811 0 002.346.572 4.838 4.838 0 002.36-.572 4.114 4.114 0 001.644-1.644 5.027 5.027 0 00.6-2.49 5.027 5.027 0 00-.6-2.49 4.114 4.114 0 00-1.644-1.644zm-.702 7.081a3.181 3.181 0 01-1.658.429 3.181 3.181 0 01-1.657-.429 2.921 2.921 0 01-1.118-1.2 3.767 3.767 0 01-.4-1.755 3.767 3.767 0 01.4-1.755 2.921 2.921 0 011.118-1.19 3.181 3.181 0 011.657-.43 3.181 3.181 0 011.658.43 2.921 2.921 0 011.118 1.2 3.767 3.767 0 01.4 1.755 3.767 3.767 0 01-.4 1.755 2.921 2.921 0 01-1.118 1.19zm11.739-7.084a4.838 4.838 0 00-2.36-.572 4.811 4.811 0 00-2.347.572 4.157 4.157 0 00-1.655 1.644 4.984 4.984 0 00-.6 2.49 4.984 4.984 0 00.6 2.49 4.157 4.157 0 001.656 1.644 4.811 4.811 0 002.344.572 4.838 4.838 0 002.36-.572 4.114 4.114 0 001.646-1.644 5.027 5.027 0 00.6-2.49 5.027 5.027 0 00-.6-2.49 4.114 4.114 0 00-1.644-1.644zm-.702 7.084a3.181 3.181 0 01-1.66.43 3.181 3.181 0 01-1.655-.43 2.921 2.921 0 01-1.118-1.2 3.767 3.767 0 01-.4-1.755 3.767 3.767 0 01.4-1.755 2.921 2.921 0 011.118-1.2 3.181 3.181 0 011.655-.42 3.181 3.181 0 011.66.43 2.921 2.921 0 011.118 1.2 3.767 3.767 0 01.4 1.755 3.767 3.767 0 01-.4 1.755 2.921 2.921 0 01-1.118 1.19zm13.578-7.5h-1.391l-2.886 4.875-2.873-4.875h-1.378v9.1h1.378v-6.565l2.3 3.809h1.17l2.288-3.822v6.578h1.391zm3.926 1.274h4.693v-1.274h-6.07v9.1h6.071v-1.274h-4.693V65.41h4.42v-1.287h-4.42zm13.429 3a2.578 2.578 0 00.481-1.6 2.391 2.391 0 00-.877-1.97 4.083 4.083 0 00-2.606-.704h-3.391v9.1h1.378V65.8h2.158l1.688 3.731h1.521l-1.794-3.913a2.639 2.639 0 001.443-.91zm-5.018-3h2.185q1.937 0 1.937 1.4t-1.937 1.4h-2.184zm9.049 7.618a4.253 4.253 0 001.794.364 4.4 4.4 0 001.807-.338 2.564 2.564 0 001.144-.943 2.5 2.5 0 00.39-1.385 2.423 2.423 0 00-.325-1.326 2.286 2.286 0 00-.949-.812 8.607 8.607 0 00-1.677-.566 6.693 6.693 0 01-1.794-.643 1.018 1.018 0 01-.533-.9 1.046 1.046 0 01.514-.9 2.323 2.323 0 011.319-.345 2.475 2.475 0 011.333.351 1.323 1.323 0 01.591 1.17h1.391a2.931 2.931 0 00-.351-1.365 2.52 2.52 0 00-1.066-1.014 3.948 3.948 0 00-1.872-.39 4.042 4.042 0 00-1.742.345 2.627 2.627 0 00-1.105.917 2.2 2.2 0 00-.377 1.235 2.1 2.1 0 00.708 1.7 5.2 5.2 0 002.178.936 10.945 10.945 0 011.371.4 1.88 1.88 0 01.754.488 1.12 1.12 0 01.254.76 1.179 1.179 0 01-.475.988 2.269 2.269 0 01-1.4.364 2.369 2.369 0 01-1.6-.494 1.842 1.842 0 01-.637-1.3h-1.387a3.062 3.062 0 00.488 1.645 2.944 2.944 0 001.254 1.058zm9.659-4.16l2.899 4.368h1.664l-3.614-5.473 3.146-3.627h-1.7l-3.331 3.822v-3.627a.193.193 0 00-.052-.143.176.176 0 00-.13-.052h-1.2v9.1h1.378v-3.289zm6.5-4.732v9.1h1.378v-8.905a.193.193 0 00-.052-.143.176.176 0 00-.13-.052z"/></g><g data-name="Group 14"><g data-name="Group 34" fill="#161615"><path data-name="Path 6" d="M157.561 13.452c-.7 10.728-3.462 19.026-10.224 25.675-12.133 11.935-30.023 13.628-45.492 4.378a9.178 9.178 0 00-6.423-1.1C76.3 47.689 52.535 36.643 47.353 15.414c-.074-.3-.39-.53-1.171-1.539-4.768 2.083-9.882 4.046-14.754 6.504-9.865 4.966-18.705 11.262-25.148 20.587C-1.385 52.058-.587 64.48 1.2 76.756c.831 5.723 5.5 9.153 11.436 9.935 4.718.622 7.074-1.227 7.363-6.02.267-4.4-.019-8.829.335-13.214.121-1.494 1.444-2.888 2.218-4.329.864 1.392 2.41 2.754 2.474 4.184.279 6.262.13 12.545.13 18.819 0 6.592 1.474 9.179 5.467 8.913 6.03-.4 5.169-5.106 5.194-9.116.042-6.783-.16-13.575.143-20.345.067-1.5 1.808-2.927 2.777-4.389.767 1.478 2.156 2.937 2.2 4.436.213 7.454.111 14.921.04 22.382-.036 3.826.906 6.93 5.357 7s5.5-2.938 5.474-6.823c-.063-7.8-.148-15.607.119-23.4.052-1.543 1.655-3.032 2.541-4.545.843 1.547 2.361 3.073 2.414 4.649.255 7.623.135 15.26.107 22.892-.013 3.7.645 7.084 5.147 7.206 4.707.126 5.722-3.1 5.684-7.178-.076-8.31-.131-16.625.141-24.926.051-1.53 1.692-3.006 2.6-4.507.751 1.471 2.117 2.927 2.151 4.414.189 8.475.1 16.956.017 25.435-.038 3.657.931 6.564 5.054 6.74 4.313.185 5.84-2.557 5.835-6.547-.012-8.988-.111-17.98.127-26.963.043-1.578 1.56-3.118 2.4-4.676.89 1.517 2.512 3.013 2.553 4.554.244 8.982.162 17.974.1 26.961-.025 3.619.7 6.506 5.031 6.626 4.493.13 5.671-2.703 5.671-6.603-.007-8.988-.1-17.98.1-26.964.055-2.332-1.726-6 2.47-6.351.565-.047 2.057 4.266 2.143 6.595.323 8.807.232 17.631.325 26.448.039 3.725.951 6.962 5.464 6.942s5.35-3.122 5.333-6.954c-.044-8.987-.084-17.98.2-26.96.05-1.515 1.749-2.976 2.686-4.463.79 1.447 2.227 2.878 2.264 4.343.209 8.474.11 16.956.071 25.435-.019 4.024-.257 8.219 5.291 8.616 3.917.279 5.5-2.223 5.5-8.333 0-7.462-.139-14.925-.019-22.385.036-2.247-1.263-5.785 2.646-5.729.843.013 2.253 3.846 2.335 5.961.291 7.621.168 15.26.115 22.89-.027 3.886.54 7.535 5.3 7.583 5.068.051 5.624-3.724 5.576-7.822-.091-7.631-.16-15.267.074-22.892.044-1.438 1.53-2.831 2.351-4.245.864 1.366 2.431 2.711 2.474 4.1.248 8.133.2 16.278.125 24.418-.035 3.812 1.35 6.4 5.354 6.455 4.02.056 5.557-2.577 5.557-6.329 0-7.8-.172-15.606.079-23.4.05-1.522 1.695-2.992 2.6-4.484.8 1.451 2.26 2.882 2.3 4.357.239 7.794.178 15.6.106 23.4-.035 3.76 1.165 6.454 5.283 6.474 4.032.019 5.548-2.6 5.562-6.343.029-7.122-.1-14.249.142-21.364.05-1.435 1.462-2.821 2.246-4.229.818 1.417 2.226 2.788 2.343 4.263.334 4.215.021 8.475.186 12.71.212 5.436 3.027 7.563 8.275 6.506 6.289-1.267 10.348-6.551 11.221-13.3 3.013-23.314-6.568-39.758-26.632-50.511-6.018-3.225-12.309-5.927-19.409-9.316"/><path data-name="Path 7" d="M101.329 0c-7.5.062-10.457 2.648-10.43 9.117.031 7.331 5.173 12.613 12.238 12.57a12.233 12.233 0 0012.227-12.673c-.022-5.402-5.751-9.081-14.035-9.014"/></g></g></g></svg>