<svg xmlns="http://www.w3.org/2000/svg" xmlns:xlink="http://www.w3.org/1999/xlink" width="260" height="261" viewBox="0 0 260 261">
  <defs>
    <clipPath id="clip-Ikona_telefon_">
      <rect width="260" height="261"/>
    </clipPath>
  </defs>
  <g id="Ikona_telefon_" data-name="Ikona (telefon)" clip-path="url(#clip-Ikona_telefon_)">
    <path id="Union_2" data-name="Union 2" d="M3564.577,8551.559a206.032,206.032,0,0,1-65.567-42.775,198.685,198.685,0,0,1-44.2-63.463,192.9,192.9,0,0,1-16.213-77.711,195.171,195.171,0,0,1,1.94-27.465h.392a26.039,26.039,0,0,1,15.9-19.574l31.074-12.555a26.064,26.064,0,0,1,33.93,14.4l18.14,44.873c5.387,13.346,2.341,21.275-12.064,33.877l-18.062,15.434a204.808,204.808,0,0,0,81.646,78.576l10.769-13.518c12.1-14.83,19.917-18.156,33.445-13.234l45.486,16.555a26.054,26.054,0,0,1,15.58,33.4l-11.462,31.488a25.99,25.99,0,0,1-15.83,15.666v.311l-1.471.162a25.979,25.979,0,0,1-10.125.852c-4.343.262-8.693.4-13.019.4A210.916,210.916,0,0,1,3564.577,8551.559Z" transform="translate(-3438.373 -8306.252)" fill="#fea234"/>
  </g>
</svg>
