<svg xmlns="http://www.w3.org/2000/svg" xmlns:xlink="http://www.w3.org/1999/xlink" width="30" height="30" viewBox="0 0 30 30">
  <defs>
    <clipPath id="clip-Ikona_telefon_">
      <rect width="30" height="30"/>
    </clipPath>
  </defs>
  <g id="Ikona_telefon_" data-name="Ikona (telefon) " clip-path="url(#clip-Ikona_telefon_)">
    <path id="Union_2" data-name="Union 2" d="M3453.145,8334.46a23.791,23.791,0,0,1-7.573-4.94,22.955,22.955,0,0,1-5.1-7.329,22.28,22.28,0,0,1-1.873-8.975,22.557,22.557,0,0,1,.224-3.173h.045a3,3,0,0,1,1.836-2.26l3.589-1.45a3.009,3.009,0,0,1,3.918,1.662l2.1,5.183c.622,1.542.27,2.458-1.394,3.913l-2.086,1.782a23.657,23.657,0,0,0,9.43,9.075l1.244-1.562c1.4-1.713,2.3-2.1,3.863-1.528l5.253,1.912a3.009,3.009,0,0,1,1.8,3.857l-1.324,3.637a3,3,0,0,1-1.828,1.81v.036l-.17.019a3.011,3.011,0,0,1-1.169.1c-.5.029-1,.045-1.5.045A24.376,24.376,0,0,1,3453.145,8334.46Z" transform="translate(-3438.595 -8306.252)" fill="#fea234"/>
  </g>
</svg>
