<svg xmlns="http://www.w3.org/2000/svg" xmlns:xlink="http://www.w3.org/1999/xlink" width="189" height="261" viewBox="0 0 189 261">
  <defs>
    <clipPath id="clip-Ikona_lokacja_">
      <rect width="189" height="261"/>
    </clipPath>
  </defs>
  <g id="Ikona_lokacja_" data-name="Ikona (lokacja)" clip-path="url(#clip-Ikona_lokacja_)">
    <path id="Subtraction_4" data-name="Subtraction 4" d="M3531.621,8565.146c-2.8,0-9.952-6.788-19.635-18.624a476.922,476.922,0,0,1-31.987-44.9c-12.2-19.241-22.518-38.163-29.832-54.722-8.738-19.779-13.168-35.956-13.168-48.081a94.512,94.512,0,0,1,16.16-53.016,94.928,94.928,0,0,1,41.631-34.353,94.349,94.349,0,0,1,89.736,8.742,94.728,94.728,0,0,1,41.719,78.626c0,12.125-4.43,28.3-13.168,48.081-7.314,16.558-17.63,35.479-29.833,54.722a476.819,476.819,0,0,1-31.988,44.9C3541.573,8558.357,3534.416,8565.146,3531.621,8565.146Zm1.821-199.15a34.646,34.646,0,1,0,34.574,34.646A34.65,34.65,0,0,0,3533.442,8366Z" transform="translate(-3437.222 -8304.143)" fill="#fea234"/>
  </g>
</svg>
