<svg xmlns="http://www.w3.org/2000/svg" xmlns:xlink="http://www.w3.org/1999/xlink" width="30" height="30" viewBox="0 0 30 30">
  <defs>
    <clipPath id="clip-Ikona_lokacja_">
      <rect width="30" height="30"/>
    </clipPath>
  </defs>
  <g id="Ikona_lokacja_" data-name="Ikona (lokacja) " clip-path="url(#clip-Ikona_lokacja_)">
    <path id="Subtraction_4" data-name="Subtraction 4" d="M3448.024,8334.143c-.325,0-1.159-.783-2.287-2.149a54.932,54.932,0,0,1-3.727-5.184,49.377,49.377,0,0,1-3.476-6.316,14.647,14.647,0,0,1-1.534-5.55,10.847,10.847,0,0,1,1.883-6.12,11.062,11.062,0,0,1,18.284,0,10.847,10.847,0,0,1,1.883,6.12,14.643,14.643,0,0,1-1.534,5.55,49.35,49.35,0,0,1-3.476,6.316,54.845,54.845,0,0,1-3.727,5.184C3449.184,8333.359,3448.35,8334.143,3448.024,8334.143Zm.212-22.988a4,4,0,1,0,4.028,4A4.019,4.019,0,0,0,3448.236,8311.154Z" transform="translate(-3433.024 -8304.143)" fill="#fea234"/>
  </g>
</svg>
