<svg xmlns="http://www.w3.org/2000/svg" xmlns:xlink="http://www.w3.org/1999/xlink" width="261" height="261" viewBox="0 0 261 261">
  <defs>
    <clipPath id="clip-Ikona_zegar_">
      <rect width="261" height="261"/>
    </clipPath>
  </defs>
  <g id="Ikona_zegar_" data-name="Ikona (zegar)" clip-path="url(#clip-Ikona_zegar_)">
    <path id="Subtraction_8" data-name="Subtraction 8" d="M130.5,261a131.461,131.461,0,0,1-26.3-2.651,129.785,129.785,0,0,1-46.663-19.636A130.881,130.881,0,0,1,10.255,181.3a129.843,129.843,0,0,1-7.6-24.5,131.77,131.77,0,0,1,0-52.6A129.785,129.785,0,0,1,22.287,57.536,130.881,130.881,0,0,1,79.7,10.255a129.843,129.843,0,0,1,24.5-7.6,131.77,131.77,0,0,1,52.6,0,129.785,129.785,0,0,1,46.663,19.636A130.881,130.881,0,0,1,250.745,79.7a129.843,129.843,0,0,1,7.6,24.5,131.77,131.77,0,0,1,0,52.6,129.785,129.785,0,0,1-19.636,46.663A130.881,130.881,0,0,1,181.3,250.745a129.843,129.843,0,0,1-24.5,7.6A131.461,131.461,0,0,1,130.5,261Zm0-236.9a11.012,11.012,0,0,0-11,11v95.081a11,11,0,0,0,2.159,6.863l.007.009.014.02.008.011a10.99,10.99,0,0,0,6.267,4.118L191.373,158.2a10.99,10.99,0,0,0,2.843.377h.01a11,11,0,0,0,2.84-21.627L141.5,122.058V35.1A11.012,11.012,0,0,0,130.5,24.1Z" fill="#fea234"/>
  </g>
</svg>
