<svg xmlns="http://www.w3.org/2000/svg" xmlns:xlink="http://www.w3.org/1999/xlink" width="30" height="30" viewBox="0 0 30 30">
  <defs>
    <clipPath id="clip-Ikona_mail_">
      <rect width="30" height="30"/>
    </clipPath>
  </defs>
  <g id="Ikona_mail_" data-name="Ikona (mail)" clip-path="url(#clip-Ikona_mail_)">
    <g id="Ikona_mail_2" data-name="Ikona (mail)" transform="translate(-358 -4093.166)">
      <path id="Subtraction_7" data-name="Subtraction 7" d="M25.994,21H4a4,4,0,0,1-4-4V4a4,4,0,0,1,.15-1.09l14.07,11.556a1.509,1.509,0,0,0,1.9,0l13.8-11.274A4.027,4.027,0,0,1,30,4V17A4.007,4.007,0,0,1,25.994,21ZM15.17,11.364v0L1.985.542A4.007,4.007,0,0,1,4,0h22a4,4,0,0,1,2.244.686L15.17,11.362Z" transform="translate(358 4098.167)" fill="#fea234"/>
    </g>
  </g>
</svg>
