<svg id="Ikona_FB_" data-name="Ikona (FB)" xmlns="http://www.w3.org/2000/svg" width="79.971" height="79.971" viewBox="0 0 79.971 79.971">
  <path id="Path_4" data-name="Path 4" d="M79.971,39.985a39.985,39.985,0,1,0-46.233,39.5V51.546H23.583V39.985H33.738V31.174c0-10.02,5.972-15.559,15.1-15.559a61.468,61.468,0,0,1,8.952.782v9.84H52.75c-4.965,0-6.517,3.081-6.517,6.247v7.5H57.321L55.55,51.546H46.233V79.487A39.99,39.99,0,0,0,79.971,39.985Z" fill="#1977f3"/>
  <path id="Path_5" data-name="Path 5" d="M4225.967,2812.931l1.771-11.561h-11.089v-7.5c0-3.16,1.546-6.247,6.517-6.247h5.044v-9.84a61.476,61.476,0,0,0-8.952-.781c-9.132,0-15.1,5.533-15.1,15.559v8.811H4194v11.561h10.155v27.941a40.131,40.131,0,0,0,6.247.484,40.829,40.829,0,0,0,6.247-.484v-27.941Z" transform="translate(-4170.417 -2761.385)" fill="#fefefe"/>
</svg>
