<svg xmlns="http://www.w3.org/2000/svg" xmlns:xlink="http://www.w3.org/1999/xlink" width="30" height="30" viewBox="0 0 30 30">
  <defs>
    <clipPath id="clip-Ikona_FB_">
      <rect width="30" height="30"/>
    </clipPath>
  </defs>
  <g id="Ikona_FB_" data-name="Ikona (FB)" clip-path="url(#clip-Ikona_FB_)">
    <g id="Layer_x0020_1" transform="translate(0 0)">
      <path id="Path_4" data-name="Path 4" d="M30,15A15,15,0,1,0,12.656,29.819V19.337H8.847V15h3.81V11.695c0-3.759,2.24-5.837,5.666-5.837a23.059,23.059,0,0,1,3.358.293V9.842H19.788a2.169,2.169,0,0,0-2.445,2.344V15H21.5l-.664,4.337h-3.5V29.819A15,15,0,0,0,30,15Z" fill="#1977f3"/>
      <path id="Path_5" data-name="Path 5" d="M4205.992,2790.479l.664-4.337H4202.5v-2.814a2.168,2.168,0,0,1,2.444-2.344h1.893v-3.691a23.055,23.055,0,0,0-3.358-.293c-3.425,0-5.666,2.076-5.666,5.837v3.306H4194v4.337h3.81v10.481a15.081,15.081,0,0,0,2.344.182,15.314,15.314,0,0,0,2.344-.182v-10.481Z" transform="translate(-4185.153 -2771.142)" fill="#fefefe"/>
    </g>
  </g>
</svg>
