<svg xmlns="http://www.w3.org/2000/svg" xmlns:xlink="http://www.w3.org/1999/xlink" width="30" height="30" viewBox="0 0 30 30">
  <defs>
    <clipPath id="clip-Ikona_zegar_">
      <rect width="30" height="30"/>
    </clipPath>
  </defs>
  <g id="Ikona_zegar_" data-name="Ikona (zegar) " clip-path="url(#clip-Ikona_zegar_)">
    <path id="Subtraction_8" data-name="Subtraction 8" d="M15,30a15.11,15.11,0,0,1-3.023-.3,14.918,14.918,0,0,1-5.364-2.257,15.044,15.044,0,0,1-5.435-6.6A14.924,14.924,0,0,1,.3,18.023a15.146,15.146,0,0,1,0-6.046A14.918,14.918,0,0,1,2.562,6.613a15.044,15.044,0,0,1,6.6-5.435A14.924,14.924,0,0,1,11.977.3a15.146,15.146,0,0,1,6.046,0,14.918,14.918,0,0,1,5.364,2.257,15.044,15.044,0,0,1,5.435,6.6,14.925,14.925,0,0,1,.874,2.816,15.146,15.146,0,0,1,0,6.046,14.918,14.918,0,0,1-2.257,5.364,15.044,15.044,0,0,1-6.6,5.435,14.925,14.925,0,0,1-2.816.874A15.11,15.11,0,0,1,15,30ZM15,2.77a1.266,1.266,0,0,0-1.264,1.264V14.964a1.264,1.264,0,0,0,.248.789h0l0,0h0a1.263,1.263,0,0,0,.72.473L22,18.184a1.263,1.263,0,0,0,.327.043h0a1.265,1.265,0,0,0,.326-2.486L16.264,14.03V4.035A1.266,1.266,0,0,0,15,2.77Z" fill="#fea234"/>
  </g>
</svg>
