<svg xmlns="http://www.w3.org/2000/svg" width="450.52" height="95.063" viewBox="0 0 450.52 95.063">
  <g id="Logo_Psiaki-Nati" data-name="Logo Psiaki-Nati" transform="translate(-102 -84.469)">
    <g id="Group_12" data-name="Group 12" transform="translate(-77.927 3)">
      <path id="Path_17" data-name="Path 17" d="M-109.128-14.714h8.628a3.5,3.5,0,0,0,1.883-.5,3.413,3.413,0,0,0,1.262-1.41A4.585,4.585,0,0,0-96.9-18.7a4.754,4.754,0,0,0-.445-2.115,3.33,3.33,0,0,0-1.262-1.41,3.545,3.545,0,0,0-1.893-.5h-8.628v-4.249h8.5a8.924,8.924,0,0,1,4.351,1.03,7.2,7.2,0,0,1,2.913,2.9,8.871,8.871,0,0,1,1.03,4.342,8.818,8.818,0,0,1-1.03,4.333,7.152,7.152,0,0,1-2.913,2.885,8.99,8.99,0,0,1-4.351,1.021h-8.5Zm-2.134-12.265h4.435V0h-4.435ZM-77.4.278A17.991,17.991,0,0,1-81.131-.1,14.877,14.877,0,0,1-84.5-1.234a13.863,13.863,0,0,1-2.867-1.828l2.356-3.544A11.293,11.293,0,0,0-81.5-4.62a12.247,12.247,0,0,0,4.1.687A7.727,7.727,0,0,0-73.2-4.9,3.067,3.067,0,0,0-71.7-7.626v-.019a2.821,2.821,0,0,0-.668-1.976A3.91,3.91,0,0,0-74.117-10.7a21.755,21.755,0,0,0-2.765-.64.35.35,0,0,0-.111-.019.35.35,0,0,1-.111-.019l-.334-.056a26.963,26.963,0,0,1-4.453-1.058,6.4,6.4,0,0,1-2.969-2.189,7.151,7.151,0,0,1-1.225-4.472v-.019a8.022,8.022,0,0,1,1.15-4.379,7.205,7.205,0,0,1,3.34-2.765,13.242,13.242,0,0,1,5.27-.946,13.31,13.31,0,0,1,2.9.325,15.407,15.407,0,0,1,2.867.946,15.207,15.207,0,0,1,2.709,1.549L-70-20.781a12.619,12.619,0,0,0-3.154-1.688,9.414,9.414,0,0,0-3.173-.575,7.1,7.1,0,0,0-3.952.937,3,3,0,0,0-1.41,2.644v.019a2.72,2.72,0,0,0,.733,2.013,4.487,4.487,0,0,0,1.809,1.085,25.686,25.686,0,0,0,3.024.724,1.382,1.382,0,0,0,.139.028,1.383,1.383,0,0,1,.139.028,2.161,2.161,0,0,1,.213.046,2.161,2.161,0,0,0,.213.046,22.74,22.74,0,0,1,4.184,1.2,6.458,6.458,0,0,1,2.8,2.254,7.177,7.177,0,0,1,1.123,4.268v.037A7.627,7.627,0,0,1-68.5-3.4,7.45,7.45,0,0,1-71.946-.668,14.122,14.122,0,0,1-77.4.278ZM-56.047,0h-4.527V-26.979h4.527Zm15.565-26.979h3.229L-27.123,0h-4.769l-6.977-20.095L-45.826,0h-4.787ZM-45.844-9.37H-31.65v4.249H-45.844Zm27.737-1.818,11.355-15.79h5.529L-18.07-5.047Zm-3.024-15.79H-16.7V0h-4.435Zm7.515,12.951,3.674-2.765L-.091,0H-5.416ZM10.242,0H5.715V-26.979h4.527ZM31.13-26.979h4.824L47.57-6.216l-.445.482V-26.979h4.3V-.019H46.568L34.99-20.466l.445-.482V-.019h-4.3Zm36.05,0h3.229L80.539,0H75.771L68.794-20.095,61.836,0H57.049ZM61.818-9.37H76.012v4.249H61.818Zm27.756-15.4h4.435V0H89.573Zm-7.5-2.208h19.408v4.249H82.077ZM111.447,0H106.92V-26.979h4.527Z" transform="translate(519 133)"/>
      <path id="Path_18" data-name="Path 18" d="M3.5,0A3.5,3.5,0,1,1,0,3.5,3.5,3.5,0,0,1,3.5,0Z" transform="translate(536 117)"/>
      <path id="Path_16" data-name="Path 16" d="M-68.218-.208a4.253,4.253,0,0,0,1.794.364,4.4,4.4,0,0,0,1.807-.338,2.564,2.564,0,0,0,1.144-.943,2.5,2.5,0,0,0,.39-1.385,2.423,2.423,0,0,0-.325-1.326,2.286,2.286,0,0,0-.949-.812,8.607,8.607,0,0,0-1.677-.566,6.693,6.693,0,0,1-1.794-.643,1.018,1.018,0,0,1-.533-.9,1.046,1.046,0,0,1,.513-.9,2.323,2.323,0,0,1,1.32-.345,2.475,2.475,0,0,1,1.332.351,1.323,1.323,0,0,1,.591,1.17h1.391a2.931,2.931,0,0,0-.351-1.365A2.52,2.52,0,0,0-64.63-8.866a3.948,3.948,0,0,0-1.872-.39,4.042,4.042,0,0,0-1.742.345,2.627,2.627,0,0,0-1.1.917,2.2,2.2,0,0,0-.377,1.235,2.1,2.1,0,0,0,.708,1.7,5.2,5.2,0,0,0,2.177.936,10.945,10.945,0,0,1,1.372.4,1.88,1.88,0,0,1,.754.488,1.12,1.12,0,0,1,.254.76,1.179,1.179,0,0,1-.475.988,2.269,2.269,0,0,1-1.4.364,2.369,2.369,0,0,1-1.6-.494,1.842,1.842,0,0,1-.637-1.3H-69.96a3.062,3.062,0,0,0,.487,1.645A2.944,2.944,0,0,0-68.218-.208Zm12.441-2.015L-55.01,0h1.456l-3.2-9.1h-1.742L-61.679,0h1.456l.767-2.223Zm-.416-1.2h-2.86l1.43-4.173Zm10.556,2.145h-4.5V-8.905a.193.193,0,0,0-.052-.143.176.176,0,0,0-.13-.052h-1.2V0h5.876Zm8.171-7.41a4.838,4.838,0,0,0-2.36-.572,4.811,4.811,0,0,0-2.347.572A4.157,4.157,0,0,0-43.823-7.04a4.984,4.984,0,0,0-.6,2.49,4.984,4.984,0,0,0,.6,2.49A4.157,4.157,0,0,0-42.172-.416a4.811,4.811,0,0,0,2.347.572,4.838,4.838,0,0,0,2.36-.572A4.114,4.114,0,0,0-35.822-2.06a5.027,5.027,0,0,0,.6-2.49,5.027,5.027,0,0,0-.6-2.49A4.114,4.114,0,0,0-37.466-8.684Zm-.7,7.085a3.181,3.181,0,0,1-1.658.429A3.181,3.181,0,0,1-41.483-1.6,2.921,2.921,0,0,1-42.6-2.8,3.767,3.767,0,0,1-43-4.55a3.767,3.767,0,0,1,.4-1.755,2.921,2.921,0,0,1,1.118-1.2,3.181,3.181,0,0,1,1.658-.429,3.181,3.181,0,0,1,1.658.429,2.921,2.921,0,0,1,1.118,1.2,3.767,3.767,0,0,1,.4,1.755,3.767,3.767,0,0,1-.4,1.755A2.921,2.921,0,0,1-38.168-1.6Zm12.61-7.449a.2.2,0,0,0-.136-.052h-1.2v6.89L-31.714-9.1h-1.4V0h1.378V-6.812L-26.865,0H-25.5V-8.905A.181.181,0,0,0-25.558-9.048Zm7.9,8.6a4.656,4.656,0,0,0,2.373.6,4.534,4.534,0,0,0,2.4-.618,3.925,3.925,0,0,0,1.541-1.762,6.132,6.132,0,0,0,.5-2.691h-4.2v1.261h2.769a2.767,2.767,0,0,1-.871,1.794,3.031,3.031,0,0,1-2.145.7A3.2,3.2,0,0,1-17-1.606,2.825,2.825,0,0,1-18.09-2.828a4,4,0,0,1-.364-1.723,4.027,4.027,0,0,1,.344-1.658A2.916,2.916,0,0,1-17.05-7.462a3.1,3.1,0,0,1,1.768-.481,3.021,3.021,0,0,1,1.755.468,2.555,2.555,0,0,1,.962,1.235H-11.1a3.587,3.587,0,0,0-.936-1.775,3.924,3.924,0,0,0-1.534-.956,5.4,5.4,0,0,0-1.716-.286,4.656,4.656,0,0,0-2.373.6,4.2,4.2,0,0,0-1.625,1.677,5.025,5.025,0,0,0-.579,2.425,5.025,5.025,0,0,0,.579,2.424A4.2,4.2,0,0,0-17.654-.449ZM-2.347-4.823a2.578,2.578,0,0,0,.481-1.6,2.391,2.391,0,0,0-.878-1.97A4.083,4.083,0,0,0-5.35-9.1H-8.743V0h1.378V-3.731h2.158L-3.517,0H-2L-3.79-3.913A2.639,2.639,0,0,0-2.347-4.823Zm-5.018-3h2.184q1.937,0,1.937,1.4t-1.937,1.4H-7.365Zm14.19-.858a4.838,4.838,0,0,0-2.359-.572,4.811,4.811,0,0,0-2.347.572A4.157,4.157,0,0,0,.468-7.04a4.984,4.984,0,0,0-.6,2.49,4.984,4.984,0,0,0,.6,2.49A4.157,4.157,0,0,0,2.119-.416,4.811,4.811,0,0,0,4.465.156,4.838,4.838,0,0,0,6.825-.416,4.114,4.114,0,0,0,8.469-2.06a5.027,5.027,0,0,0,.6-2.49,5.027,5.027,0,0,0-.6-2.49A4.114,4.114,0,0,0,6.825-8.684ZM6.123-1.6a3.181,3.181,0,0,1-1.658.429A3.181,3.181,0,0,1,2.808-1.6,2.921,2.921,0,0,1,1.69-2.8a3.767,3.767,0,0,1-.4-1.755,3.767,3.767,0,0,1,.4-1.755A2.921,2.921,0,0,1,2.808-7.5,3.181,3.181,0,0,1,4.465-7.93,3.181,3.181,0,0,1,6.123-7.5a2.921,2.921,0,0,1,1.118,1.2,3.767,3.767,0,0,1,.4,1.755,3.767,3.767,0,0,1-.4,1.755A2.921,2.921,0,0,1,6.123-1.6ZM17.862-8.684a4.838,4.838,0,0,0-2.36-.572,4.811,4.811,0,0,0-2.347.572A4.157,4.157,0,0,0,11.5-7.04a4.984,4.984,0,0,0-.6,2.49,4.984,4.984,0,0,0,.6,2.49A4.157,4.157,0,0,0,13.156-.416,4.811,4.811,0,0,0,15.5.156a4.838,4.838,0,0,0,2.36-.572A4.114,4.114,0,0,0,19.506-2.06a5.027,5.027,0,0,0,.6-2.49,5.027,5.027,0,0,0-.6-2.49A4.114,4.114,0,0,0,17.862-8.684ZM17.16-1.6A3.181,3.181,0,0,1,15.5-1.17,3.181,3.181,0,0,1,13.845-1.6a2.921,2.921,0,0,1-1.118-1.2,3.767,3.767,0,0,1-.4-1.755,3.767,3.767,0,0,1,.4-1.755,2.921,2.921,0,0,1,1.118-1.2A3.181,3.181,0,0,1,15.5-7.93,3.181,3.181,0,0,1,17.16-7.5a2.921,2.921,0,0,1,1.118,1.2,3.767,3.767,0,0,1,.4,1.755,3.767,3.767,0,0,1-.4,1.755A2.921,2.921,0,0,1,17.16-1.6ZM30.738-9.1H29.347L26.461-4.225,23.588-9.1H22.21V0h1.378V-6.565l2.3,3.809h1.17l2.288-3.822V0h1.391Zm3.926,1.274h4.693V-9.1H33.287V0h6.071V-1.274H34.665V-4.121h4.42V-5.408h-4.42Zm13.429,3a2.578,2.578,0,0,0,.481-1.6,2.391,2.391,0,0,0-.877-1.97A4.083,4.083,0,0,0,45.091-9.1H41.7V0h1.378V-3.731h2.158L46.924,0h1.521L46.651-3.913A2.639,2.639,0,0,0,48.094-4.823Zm-5.018-3H45.26q1.937,0,1.937,1.4t-1.937,1.4H43.076ZM52.124-.208a4.253,4.253,0,0,0,1.794.364,4.4,4.4,0,0,0,1.807-.338,2.564,2.564,0,0,0,1.144-.943,2.5,2.5,0,0,0,.39-1.385,2.423,2.423,0,0,0-.325-1.326,2.286,2.286,0,0,0-.949-.812,8.607,8.607,0,0,0-1.677-.566,6.693,6.693,0,0,1-1.794-.643,1.018,1.018,0,0,1-.533-.9,1.046,1.046,0,0,1,.514-.9,2.323,2.323,0,0,1,1.319-.345,2.475,2.475,0,0,1,1.333.351,1.323,1.323,0,0,1,.591,1.17h1.391a2.931,2.931,0,0,0-.351-1.365,2.52,2.52,0,0,0-1.066-1.014,3.948,3.948,0,0,0-1.872-.39,4.042,4.042,0,0,0-1.742.345,2.627,2.627,0,0,0-1.105.917,2.2,2.2,0,0,0-.377,1.235,2.1,2.1,0,0,0,.708,1.7,5.2,5.2,0,0,0,2.178.936,10.945,10.945,0,0,1,1.371.4,1.88,1.88,0,0,1,.754.488,1.12,1.12,0,0,1,.254.76,1.179,1.179,0,0,1-.475.988,2.269,2.269,0,0,1-1.4.364,2.369,2.369,0,0,1-1.6-.494,1.842,1.842,0,0,1-.637-1.3H50.382a3.062,3.062,0,0,0,.488,1.645A2.944,2.944,0,0,0,52.124-.208Zm9.659-4.16L64.682,0h1.664L62.732-5.473,65.878-9.1h-1.7L60.847-5.278V-8.905a.193.193,0,0,0-.052-.143.176.176,0,0,0-.13-.052h-1.2V0h1.378V-3.289Zm6.5-4.732V0h1.378V-8.905a.193.193,0,0,0-.052-.143.176.176,0,0,0-.13-.052Z" transform="translate(476 151)"/>
    </g>
    <g id="Group_14" data-name="Group 14" transform="translate(102 84.469)">
      <g id="Group_34" data-name="Group 34" transform="translate(0 0)">
        <path id="Path_6" data-name="Path 6" d="M157.561,10.031c-.7,10.728-3.462,19.026-10.224,25.675-12.133,11.935-30.023,13.628-45.492,4.378a9.178,9.178,0,0,0-6.423-1.1C76.3,44.268,52.535,33.222,47.353,11.993c-.074-.3-.39-.53-1.171-1.539C41.414,12.537,36.3,14.5,31.428,16.958,21.563,21.924,12.723,28.22,6.28,37.545-1.385,48.637-.587,61.059,1.2,73.335c.831,5.723,5.5,9.153,11.436,9.935,4.718.622,7.074-1.227,7.363-6.02.267-4.4-.019-8.829.335-13.214.121-1.494,1.444-2.888,2.218-4.329.864,1.392,2.41,2.754,2.474,4.184.279,6.262.13,12.545.13,18.819,0,6.592,1.474,9.179,5.467,8.913,6.03-.4,5.169-5.106,5.194-9.116.042-6.783-.16-13.575.143-20.345.067-1.5,1.808-2.927,2.777-4.389.767,1.478,2.156,2.937,2.2,4.436.213,7.454.111,14.921.04,22.382-.036,3.826.906,6.93,5.357,7s5.5-2.938,5.474-6.823c-.063-7.8-.148-15.607.119-23.4.052-1.543,1.655-3.032,2.541-4.545.843,1.547,2.361,3.073,2.414,4.649.255,7.623.135,15.26.107,22.892-.013,3.7.645,7.084,5.147,7.206,4.707.126,5.722-3.1,5.684-7.178-.076-8.31-.131-16.625.141-24.926.051-1.53,1.692-3.006,2.6-4.507.751,1.471,2.117,2.927,2.151,4.414.189,8.475.1,16.956.017,25.435-.038,3.657.931,6.564,5.054,6.74,4.313.185,5.84-2.557,5.835-6.547-.012-8.988-.111-17.98.127-26.963.043-1.578,1.56-3.118,2.4-4.676.89,1.517,2.512,3.013,2.553,4.554.244,8.982.162,17.974.1,26.961-.025,3.619.7,6.506,5.031,6.626C98.322,91.633,99.5,88.8,99.5,84.9c-.007-8.988-.1-17.98.1-26.964.055-2.332-1.726-6,2.47-6.351.565-.047,2.057,4.266,2.143,6.595.323,8.807.232,17.631.325,26.448.039,3.725.951,6.962,5.464,6.942s5.35-3.122,5.333-6.954c-.044-8.987-.084-17.98.2-26.96.05-1.515,1.749-2.976,2.686-4.463.79,1.447,2.227,2.878,2.264,4.343.209,8.474.11,16.956.071,25.435-.019,4.024-.257,8.219,5.291,8.616,3.917.279,5.5-2.223,5.5-8.333,0-7.462-.139-14.925-.019-22.385.036-2.247-1.263-5.785,2.646-5.729.843.013,2.253,3.846,2.335,5.961.291,7.621.168,15.26.115,22.89-.027,3.886.54,7.535,5.3,7.583,5.068.051,5.624-3.724,5.576-7.822-.091-7.631-.16-15.267.074-22.892.044-1.438,1.53-2.831,2.351-4.245.864,1.366,2.431,2.711,2.474,4.1.248,8.133.2,16.278.125,24.418-.035,3.812,1.35,6.4,5.354,6.455,4.02.056,5.557-2.577,5.557-6.329,0-7.8-.172-15.606.079-23.4.05-1.522,1.695-2.992,2.6-4.484.8,1.451,2.26,2.882,2.3,4.357.239,7.794.178,15.6.106,23.4-.035,3.76,1.165,6.454,5.283,6.474,4.032.019,5.548-2.6,5.562-6.343.029-7.122-.1-14.249.142-21.364.05-1.435,1.462-2.821,2.246-4.229.818,1.417,2.226,2.788,2.343,4.263.334,4.215.021,8.475.186,12.71.212,5.436,3.027,7.563,8.275,6.506,6.289-1.267,10.348-6.551,11.221-13.3,3.013-23.314-6.568-39.758-26.632-50.511-6.018-3.225-12.309-5.927-19.409-9.316" transform="translate(0 3.421)" fill="#161615"/>
        <path id="Path_7" data-name="Path 7" d="M78.216,0c-7.5.062-10.457,2.648-10.43,9.117.031,7.331,5.173,12.613,12.238,12.57A12.233,12.233,0,0,0,92.251,9.014C92.229,3.612,86.5-.067,78.216,0" transform="translate(23.113 0)" fill="#161615"/>
      </g>
    </g>
  </g>
</svg>
