<svg xmlns="http://www.w3.org/2000/svg" width="222.708" height="158.39" viewBox="0 0 222.708 158.39">
  <g id="Logo_Psiaki-Nati_kwadrat_" data-name="Logo Psiaki-Nati (kwadrat)" transform="translate(-100.739 -4056.223)">
    <g id="Group_17" data-name="Group 17" transform="translate(-307 4063.457)">
      <path id="Path_19" data-name="Path 19" d="M-109.128-14.714h8.628a3.5,3.5,0,0,0,1.883-.5,3.413,3.413,0,0,0,1.262-1.41A4.585,4.585,0,0,0-96.9-18.7a4.754,4.754,0,0,0-.445-2.115,3.33,3.33,0,0,0-1.262-1.41,3.545,3.545,0,0,0-1.893-.5h-8.628v-4.249h8.5a8.924,8.924,0,0,1,4.351,1.03,7.2,7.2,0,0,1,2.913,2.9,8.871,8.871,0,0,1,1.03,4.342,8.818,8.818,0,0,1-1.03,4.333,7.152,7.152,0,0,1-2.913,2.885,8.99,8.99,0,0,1-4.351,1.021h-8.5Zm-2.134-12.265h4.435V0h-4.435ZM-77.4.278A17.991,17.991,0,0,1-81.131-.1,14.877,14.877,0,0,1-84.5-1.234a13.863,13.863,0,0,1-2.867-1.828l2.356-3.544A11.293,11.293,0,0,0-81.5-4.62a12.247,12.247,0,0,0,4.1.687A7.727,7.727,0,0,0-73.2-4.9,3.067,3.067,0,0,0-71.7-7.626v-.019a2.821,2.821,0,0,0-.668-1.976A3.91,3.91,0,0,0-74.117-10.7a21.755,21.755,0,0,0-2.765-.64.35.35,0,0,0-.111-.019.35.35,0,0,1-.111-.019l-.334-.056a26.963,26.963,0,0,1-4.453-1.058,6.4,6.4,0,0,1-2.969-2.189,7.151,7.151,0,0,1-1.225-4.472v-.019a8.022,8.022,0,0,1,1.15-4.379,7.205,7.205,0,0,1,3.34-2.765,13.242,13.242,0,0,1,5.27-.946,13.31,13.31,0,0,1,2.9.325,15.407,15.407,0,0,1,2.867.946,15.207,15.207,0,0,1,2.709,1.549L-70-20.781a12.619,12.619,0,0,0-3.154-1.688,9.414,9.414,0,0,0-3.173-.575,7.1,7.1,0,0,0-3.952.937,3,3,0,0,0-1.41,2.644v.019a2.72,2.72,0,0,0,.733,2.013,4.487,4.487,0,0,0,1.809,1.085,25.686,25.686,0,0,0,3.024.724,1.382,1.382,0,0,0,.139.028,1.383,1.383,0,0,1,.139.028,2.161,2.161,0,0,1,.213.046,2.161,2.161,0,0,0,.213.046,22.74,22.74,0,0,1,4.184,1.2,6.458,6.458,0,0,1,2.8,2.254,7.177,7.177,0,0,1,1.123,4.268v.037A7.627,7.627,0,0,1-68.5-3.4,7.45,7.45,0,0,1-71.946-.668,14.122,14.122,0,0,1-77.4.278ZM-56.047,0h-4.527V-26.979h4.527Zm15.565-26.979h3.229L-27.123,0h-4.769l-6.977-20.095L-45.826,0h-4.787ZM-45.844-9.37H-31.65v4.249H-45.844Zm27.737-1.818,11.355-15.79h5.529L-18.07-5.047Zm-3.024-15.79H-16.7V0h-4.435Zm7.515,12.951,3.674-2.765L-.091,0H-5.416ZM10.242,0H5.715V-26.979h4.527ZM31.13-26.979h4.824L47.57-6.216l-.445.482V-26.979h4.3V-.019H46.568L34.99-20.466l.445-.482V-.019h-4.3Zm36.05,0h3.229L80.539,0H75.771L68.794-20.095,61.836,0H57.049ZM61.818-9.37H76.012v4.249H61.818Zm27.756-15.4h4.435V0H89.573Zm-7.5-2.208h19.408v4.249H82.077ZM111.447,0H106.92V-26.979h4.527Z" transform="translate(519 133)"/>
      <path id="Path_20" data-name="Path 20" d="M3.5,0A3.5,3.5,0,1,1,0,3.5,3.5,3.5,0,0,1,3.5,0Z" transform="translate(536 117)"/>
      <path id="Path_21" data-name="Path 21" d="M-68.218-.208a4.253,4.253,0,0,0,1.794.364,4.4,4.4,0,0,0,1.807-.338,2.564,2.564,0,0,0,1.144-.943,2.5,2.5,0,0,0,.39-1.385,2.423,2.423,0,0,0-.325-1.326,2.286,2.286,0,0,0-.949-.812,8.607,8.607,0,0,0-1.677-.566,6.693,6.693,0,0,1-1.794-.643,1.018,1.018,0,0,1-.533-.9,1.046,1.046,0,0,1,.513-.9,2.323,2.323,0,0,1,1.32-.345,2.475,2.475,0,0,1,1.332.351,1.323,1.323,0,0,1,.591,1.17h1.391a2.931,2.931,0,0,0-.351-1.365A2.52,2.52,0,0,0-64.63-8.866a3.948,3.948,0,0,0-1.872-.39,4.042,4.042,0,0,0-1.742.345,2.627,2.627,0,0,0-1.1.917,2.2,2.2,0,0,0-.377,1.235,2.1,2.1,0,0,0,.708,1.7,5.2,5.2,0,0,0,2.177.936,10.945,10.945,0,0,1,1.372.4,1.88,1.88,0,0,1,.754.488,1.12,1.12,0,0,1,.254.76,1.179,1.179,0,0,1-.475.988,2.269,2.269,0,0,1-1.4.364,2.369,2.369,0,0,1-1.6-.494,1.842,1.842,0,0,1-.637-1.3H-69.96a3.062,3.062,0,0,0,.487,1.645A2.944,2.944,0,0,0-68.218-.208Zm12.441-2.015L-55.01,0h1.456l-3.2-9.1h-1.742L-61.679,0h1.456l.767-2.223Zm-.416-1.2h-2.86l1.43-4.173Zm10.556,2.145h-4.5V-8.905a.193.193,0,0,0-.052-.143.176.176,0,0,0-.13-.052h-1.2V0h5.876Zm8.171-7.41a4.838,4.838,0,0,0-2.36-.572,4.811,4.811,0,0,0-2.347.572A4.157,4.157,0,0,0-43.823-7.04a4.984,4.984,0,0,0-.6,2.49,4.984,4.984,0,0,0,.6,2.49A4.157,4.157,0,0,0-42.172-.416a4.811,4.811,0,0,0,2.347.572,4.838,4.838,0,0,0,2.36-.572A4.114,4.114,0,0,0-35.822-2.06a5.027,5.027,0,0,0,.6-2.49,5.027,5.027,0,0,0-.6-2.49A4.114,4.114,0,0,0-37.466-8.684Zm-.7,7.085a3.181,3.181,0,0,1-1.658.429A3.181,3.181,0,0,1-41.483-1.6,2.921,2.921,0,0,1-42.6-2.8,3.767,3.767,0,0,1-43-4.55a3.767,3.767,0,0,1,.4-1.755,2.921,2.921,0,0,1,1.118-1.2,3.181,3.181,0,0,1,1.658-.429,3.181,3.181,0,0,1,1.658.429,2.921,2.921,0,0,1,1.118,1.2,3.767,3.767,0,0,1,.4,1.755,3.767,3.767,0,0,1-.4,1.755A2.921,2.921,0,0,1-38.168-1.6Zm12.61-7.449a.2.2,0,0,0-.136-.052h-1.2v6.89L-31.714-9.1h-1.4V0h1.378V-6.812L-26.865,0H-25.5V-8.905A.181.181,0,0,0-25.558-9.048Zm7.9,8.6a4.656,4.656,0,0,0,2.373.6,4.534,4.534,0,0,0,2.4-.618,3.925,3.925,0,0,0,1.541-1.762,6.132,6.132,0,0,0,.5-2.691h-4.2v1.261h2.769a2.767,2.767,0,0,1-.871,1.794,3.031,3.031,0,0,1-2.145.7A3.2,3.2,0,0,1-17-1.606,2.825,2.825,0,0,1-18.09-2.828a4,4,0,0,1-.364-1.723,4.027,4.027,0,0,1,.344-1.658A2.916,2.916,0,0,1-17.05-7.462a3.1,3.1,0,0,1,1.768-.481,3.021,3.021,0,0,1,1.755.468,2.555,2.555,0,0,1,.962,1.235H-11.1a3.587,3.587,0,0,0-.936-1.775,3.924,3.924,0,0,0-1.534-.956,5.4,5.4,0,0,0-1.716-.286,4.656,4.656,0,0,0-2.373.6,4.2,4.2,0,0,0-1.625,1.677,5.025,5.025,0,0,0-.579,2.425,5.025,5.025,0,0,0,.579,2.424A4.2,4.2,0,0,0-17.654-.449ZM-2.347-4.823a2.578,2.578,0,0,0,.481-1.6,2.391,2.391,0,0,0-.878-1.97A4.083,4.083,0,0,0-5.35-9.1H-8.743V0h1.378V-3.731h2.158L-3.517,0H-2L-3.79-3.913A2.639,2.639,0,0,0-2.347-4.823Zm-5.018-3h2.184q1.937,0,1.937,1.4t-1.937,1.4H-7.365Zm14.19-.858a4.838,4.838,0,0,0-2.359-.572,4.811,4.811,0,0,0-2.347.572A4.157,4.157,0,0,0,.468-7.04a4.984,4.984,0,0,0-.6,2.49,4.984,4.984,0,0,0,.6,2.49A4.157,4.157,0,0,0,2.119-.416,4.811,4.811,0,0,0,4.465.156,4.838,4.838,0,0,0,6.825-.416,4.114,4.114,0,0,0,8.469-2.06a5.027,5.027,0,0,0,.6-2.49,5.027,5.027,0,0,0-.6-2.49A4.114,4.114,0,0,0,6.825-8.684ZM6.123-1.6a3.181,3.181,0,0,1-1.658.429A3.181,3.181,0,0,1,2.808-1.6,2.921,2.921,0,0,1,1.69-2.8a3.767,3.767,0,0,1-.4-1.755,3.767,3.767,0,0,1,.4-1.755A2.921,2.921,0,0,1,2.808-7.5,3.181,3.181,0,0,1,4.465-7.93,3.181,3.181,0,0,1,6.123-7.5a2.921,2.921,0,0,1,1.118,1.2,3.767,3.767,0,0,1,.4,1.755,3.767,3.767,0,0,1-.4,1.755A2.921,2.921,0,0,1,6.123-1.6ZM17.862-8.684a4.838,4.838,0,0,0-2.36-.572,4.811,4.811,0,0,0-2.347.572A4.157,4.157,0,0,0,11.5-7.04a4.984,4.984,0,0,0-.6,2.49,4.984,4.984,0,0,0,.6,2.49A4.157,4.157,0,0,0,13.156-.416,4.811,4.811,0,0,0,15.5.156a4.838,4.838,0,0,0,2.36-.572A4.114,4.114,0,0,0,19.506-2.06a5.027,5.027,0,0,0,.6-2.49,5.027,5.027,0,0,0-.6-2.49A4.114,4.114,0,0,0,17.862-8.684ZM17.16-1.6A3.181,3.181,0,0,1,15.5-1.17,3.181,3.181,0,0,1,13.845-1.6a2.921,2.921,0,0,1-1.118-1.2,3.767,3.767,0,0,1-.4-1.755,3.767,3.767,0,0,1,.4-1.755,2.921,2.921,0,0,1,1.118-1.2A3.181,3.181,0,0,1,15.5-7.93,3.181,3.181,0,0,1,17.16-7.5a2.921,2.921,0,0,1,1.118,1.2,3.767,3.767,0,0,1,.4,1.755,3.767,3.767,0,0,1-.4,1.755A2.921,2.921,0,0,1,17.16-1.6ZM30.738-9.1H29.347L26.461-4.225,23.588-9.1H22.21V0h1.378V-6.565l2.3,3.809h1.17l2.288-3.822V0h1.391Zm3.926,1.274h4.693V-9.1H33.287V0h6.071V-1.274H34.665V-4.121h4.42V-5.408h-4.42Zm13.429,3a2.578,2.578,0,0,0,.481-1.6,2.391,2.391,0,0,0-.877-1.97A4.083,4.083,0,0,0,45.091-9.1H41.7V0h1.378V-3.731h2.158L46.924,0h1.521L46.651-3.913A2.639,2.639,0,0,0,48.094-4.823Zm-5.018-3H45.26q1.937,0,1.937,1.4t-1.937,1.4H43.076ZM52.124-.208a4.253,4.253,0,0,0,1.794.364,4.4,4.4,0,0,0,1.807-.338,2.564,2.564,0,0,0,1.144-.943,2.5,2.5,0,0,0,.39-1.385,2.423,2.423,0,0,0-.325-1.326,2.286,2.286,0,0,0-.949-.812,8.607,8.607,0,0,0-1.677-.566,6.693,6.693,0,0,1-1.794-.643,1.018,1.018,0,0,1-.533-.9,1.046,1.046,0,0,1,.514-.9,2.323,2.323,0,0,1,1.319-.345,2.475,2.475,0,0,1,1.333.351,1.323,1.323,0,0,1,.591,1.17h1.391a2.931,2.931,0,0,0-.351-1.365,2.52,2.52,0,0,0-1.066-1.014,3.948,3.948,0,0,0-1.872-.39,4.042,4.042,0,0,0-1.742.345,2.627,2.627,0,0,0-1.105.917,2.2,2.2,0,0,0-.377,1.235,2.1,2.1,0,0,0,.708,1.7,5.2,5.2,0,0,0,2.178.936,10.945,10.945,0,0,1,1.371.4,1.88,1.88,0,0,1,.754.488,1.12,1.12,0,0,1,.254.76,1.179,1.179,0,0,1-.475.988,2.269,2.269,0,0,1-1.4.364,2.369,2.369,0,0,1-1.6-.494,1.842,1.842,0,0,1-.637-1.3H50.382a3.062,3.062,0,0,0,.488,1.645A2.944,2.944,0,0,0,52.124-.208Zm9.659-4.16L64.682,0h1.664L62.732-5.473,65.878-9.1h-1.7L60.847-5.278V-8.905a.193.193,0,0,0-.052-.143.176.176,0,0,0-.13-.052h-1.2V0h1.378V-3.289Zm6.5-4.732V0h1.378V-8.905a.193.193,0,0,0-.052-.143.176.176,0,0,0-.13-.052Z" transform="translate(519 151)"/>
    </g>
    <g id="Group_18" data-name="Group 18" transform="translate(103 4056.223)">
      <g id="Group_35" data-name="Group 35" transform="translate(0 0)">
        <path id="Path_6" data-name="Path 6" d="M168.793,10.031c-.753,11.492-3.709,20.382-10.952,27.506-13,12.785-32.163,14.6-48.735,4.69a9.833,9.833,0,0,0-6.881-1.184c-20.48,5.666-45.944-6.169-51.495-28.911-.079-.316-.418-.567-1.254-1.649-5.108,2.232-10.586,4.34-15.806,6.969C23.1,22.772,13.63,29.517,6.727,39.506-1.484,51.39-.629,64.7,1.281,77.848c.891,6.131,5.888,9.806,12.251,10.643,5.054.667,7.578-1.314,7.888-6.449.286-4.709-.02-9.458.359-14.156.129-1.6,1.547-3.094,2.376-4.637.925,1.491,2.581,2.951,2.65,4.482.3,6.709.139,13.439.139,20.161,0,7.062,1.579,9.833,5.857,9.549,6.46-.428,5.538-5.47,5.564-9.766.045-7.266-.171-14.542.154-21.8.072-1.609,1.936-3.136,2.975-4.7.822,1.583,2.31,3.146,2.355,4.752.228,7.986.119,15.985.043,23.978-.039,4.1.971,7.424,5.739,7.5s5.9-3.147,5.864-7.309c-.068-8.358-.158-16.72.128-25.068.056-1.653,1.773-3.248,2.722-4.869.9,1.658,2.53,3.293,2.586,4.981.273,8.167.145,16.348.115,24.524-.014,3.968.691,7.589,5.514,7.72,5.042.135,6.13-3.323,6.09-7.69-.082-8.9-.141-17.81.151-26.7.055-1.639,1.813-3.221,2.784-4.828.8,1.576,2.268,3.136,2.3,4.729.2,9.079.112,18.165.019,27.249-.04,3.917,1,7.032,5.414,7.22,4.62.2,6.256-2.74,6.25-7.013-.013-9.629-.119-19.261.136-28.885.046-1.691,1.671-3.34,2.567-5.009.954,1.625,2.691,3.228,2.735,4.879.261,9.622.174,19.256.1,28.883-.027,3.877.747,6.97,5.39,7.1,4.827.134,6.094-2.9,6.091-7.078-.007-9.629-.112-19.261.112-28.886.059-2.5-1.849-6.427,2.646-6.8.6-.05,2.2,4.57,2.3,7.065C112,71.049,111.9,80.5,112,89.947c.042,3.991,1.019,7.459,5.854,7.437s5.732-3.344,5.713-7.45c-.047-9.628-.091-19.261.218-28.882.053-1.623,1.873-3.188,2.877-4.781.846,1.55,2.386,3.083,2.425,4.653.224,9.078.118,18.165.076,27.249-.02,4.311-.276,8.8,5.669,9.23,4.2.3,5.9-2.382,5.891-8.927,0-7.994-.149-15.989-.02-23.98.039-2.408-1.353-6.2,2.834-6.137.9.014,2.413,4.12,2.5,6.386.312,8.164.18,16.348.124,24.522-.029,4.163.579,8.072,5.683,8.124,5.429.055,6.025-3.989,5.973-8.379-.1-8.175-.171-16.355.079-24.524.047-1.54,1.639-3.033,2.518-4.548.925,1.464,2.6,2.9,2.65,4.4.266,8.713.214,17.438.134,26.158-.037,4.084,1.447,6.857,5.736,6.916,4.307.06,5.953-2.761,5.953-6.781,0-8.356-.184-16.719.085-25.067.053-1.63,1.816-3.2,2.79-4.8.862,1.554,2.421,3.087,2.468,4.667.256,8.349.191,16.712.113,25.068-.037,4.028,1.248,6.914,5.66,6.936,4.32.02,5.943-2.788,5.959-6.795.032-7.63-.108-15.265.152-22.887.053-1.537,1.566-3.023,2.406-4.531.876,1.518,2.385,2.987,2.51,4.567.358,4.515.023,9.079.2,13.616.227,5.824,3.242,8.1,8.865,6.97,6.737-1.358,11.086-7.018,12.021-14.245,3.228-24.976-7.036-42.593-28.53-54.112-6.447-3.455-13.186-6.35-20.793-9.98" transform="translate(0 4.38)" fill="#161615"/>
        <path id="Path_7" data-name="Path 7" d="M78.96,0c-8.033.066-11.2,2.837-11.174,9.767.033,7.854,5.542,13.512,13.11,13.466,7.469-.046,13.129-5.913,13.1-13.578C93.972,3.87,87.832-.072,78.96,0" transform="translate(29.593 0.001)" fill="#161615"/>
      </g>
    </g>
  </g>
</svg>
